<svg width="62" height="59" viewBox="0 0 62 59" fill="none" xmlns="http://www.w3.org/2000/svg">
<g clip-path="url(#clip0_15_958)">
<path d="M35.9604 11.2502C35.9666 11.2539 35.9727 11.2576 35.9788 11.2613M35.9788 11.2613C38.7638 12.9479 40.625 16.0067 40.625 19.5002C40.625 24.3491 37.0394 28.3605 32.375 29.0277M35.9788 11.2613V16.0627M35.9788 11.2613V11.2577H40.625M26.0396 27.7502L26.0212 27.7391M26.0212 27.7391C23.2362 26.0525 21.375 22.9937 21.375 19.5002C21.375 14.6513 24.9606 10.6398 29.625 9.97266M26.0212 27.7391L26.0212 22.9377M26.0212 27.7391V27.7427H21.375" stroke="white" stroke-width="2" stroke-linecap="round" stroke-linejoin="round"/>
</g>
<path d="M17.87 39.778V47.5H15.989V44.321H13.063V47.5H11.182V39.778H13.063V42.803H15.989V39.778H17.87ZM21.1089 39.778V47.5H19.2279V39.778H21.1089ZM24.969 47.588C24.4337 47.588 23.957 47.4963 23.539 47.313C23.121 47.1297 22.791 46.8803 22.549 46.565C22.307 46.2423 22.1714 45.883 22.142 45.487H24.001C24.023 45.6997 24.122 45.872 24.298 46.004C24.474 46.136 24.6904 46.202 24.947 46.202C25.1817 46.202 25.3614 46.158 25.486 46.07C25.618 45.9747 25.684 45.8537 25.684 45.707C25.684 45.531 25.5924 45.4027 25.409 45.322C25.2257 45.234 24.9287 45.1387 24.518 45.036C24.078 44.9333 23.7114 44.827 23.418 44.717C23.1247 44.5997 22.8717 44.42 22.659 44.178C22.4464 43.9287 22.34 43.595 22.34 43.177C22.34 42.825 22.4354 42.506 22.626 42.22C22.824 41.9267 23.11 41.6957 23.484 41.527C23.8654 41.3583 24.3164 41.274 24.837 41.274C25.607 41.274 26.212 41.4647 26.652 41.846C27.0994 42.2273 27.356 42.7333 27.422 43.364H25.684C25.6547 43.1513 25.5594 42.9827 25.398 42.858C25.244 42.7333 25.0387 42.671 24.782 42.671C24.562 42.671 24.3934 42.715 24.276 42.803C24.1587 42.8837 24.1 42.9973 24.1 43.144C24.1 43.32 24.1917 43.452 24.375 43.54C24.5657 43.628 24.859 43.716 25.255 43.804C25.7097 43.9213 26.08 44.0387 26.366 44.156C26.652 44.266 26.9014 44.4493 27.114 44.706C27.334 44.9553 27.4477 45.2927 27.455 45.718C27.455 46.0773 27.3524 46.4 27.147 46.686C26.949 46.9647 26.6594 47.1847 26.278 47.346C25.904 47.5073 25.4677 47.588 24.969 47.588ZM32.0268 45.905V47.5H31.0698C30.3878 47.5 29.8562 47.335 29.4748 47.005C29.0935 46.6677 28.9028 46.1213 28.9028 45.366V42.924H28.1548V41.362H28.9028V39.866H30.7838V41.362H32.0158V42.924H30.7838V45.388C30.7838 45.5713 30.8278 45.7033 30.9158 45.784C31.0038 45.8647 31.1505 45.905 31.3558 45.905H32.0268ZM35.8686 47.588C35.2672 47.588 34.7246 47.4597 34.2406 47.203C33.7639 46.9463 33.3862 46.5797 33.1076 46.103C32.8362 45.6263 32.7006 45.069 32.7006 44.431C32.7006 43.8003 32.8399 43.2467 33.1186 42.77C33.3972 42.286 33.7786 41.9157 34.2626 41.659C34.7466 41.4023 35.2892 41.274 35.8906 41.274C36.4919 41.274 37.0346 41.4023 37.5186 41.659C38.0026 41.9157 38.3839 42.286 38.6626 42.77C38.9412 43.2467 39.0806 43.8003 39.0806 44.431C39.0806 45.0617 38.9376 45.619 38.6516 46.103C38.3729 46.5797 37.9879 46.9463 37.4966 47.203C37.0126 47.4597 36.4699 47.588 35.8686 47.588ZM35.8686 45.96C36.2279 45.96 36.5322 45.828 36.7816 45.564C37.0382 45.3 37.1666 44.9223 37.1666 44.431C37.1666 43.9397 37.0419 43.562 36.7926 43.298C36.5506 43.034 36.2499 42.902 35.8906 42.902C35.5239 42.902 35.2196 43.034 34.9776 43.298C34.7356 43.5547 34.6146 43.9323 34.6146 44.431C34.6146 44.9223 34.7319 45.3 34.9666 45.564C35.2086 45.828 35.5092 45.96 35.8686 45.96ZM41.9595 42.385C42.1795 42.0477 42.4545 41.7837 42.7845 41.593C43.1145 41.395 43.4812 41.296 43.8845 41.296V43.287H43.3675C42.8982 43.287 42.5462 43.3897 42.3115 43.595C42.0768 43.793 41.9595 44.145 41.9595 44.651V47.5H40.0785V41.362H41.9595V42.385ZM51.0536 41.362L47.2036 50.415H45.1796L46.5876 47.291L44.0906 41.362H46.1916L47.6106 45.201L49.0186 41.362H51.0536Z" fill="white"/>
<defs>
<clipPath id="clip0_15_958">
<rect width="22" height="22" fill="white" transform="translate(20 8.5)"/>
</clipPath>
</defs>
</svg>
