<svg width="55" height="60" viewBox="0 0 55 60" fill="none" xmlns="http://www.w3.org/2000/svg">
<path fill-rule="evenodd" clip-rule="evenodd" d="M35.78 12.3199L37.44 16.9299C37.8012 17.8226 37.7119 18.8343 37.2 19.6499C36.7644 20.268 36.1342 20.7223 35.41 20.9399V27.7399C35.3943 28.5038 35.0756 29.2301 34.5242 29.759C33.9728 30.2879 33.2339 30.576 32.47 30.5599H22.81C22.0367 30.5896 21.2837 30.3078 20.7198 29.7778C20.1559 29.2477 19.8282 28.5136 19.81 27.7399V21.0399C19.106 20.8787 18.4718 20.4968 18 19.9499C17.3216 19.1031 17.1533 17.9559 17.56 16.9499L19.21 12.3299C19.5991 11.3446 20.5609 10.7061 21.62 10.7299H33.37C34.4274 10.7016 35.39 11.3366 35.78 12.3199ZM28.8515 28.9299H28.86V28.9599C28.857 28.95 28.8541 28.94 28.8515 28.9299ZM28.8515 28.9299H26.31C26.3195 28.8535 26.3195 28.7763 26.31 28.6999V26.5899C26.3274 26.2726 26.4742 25.9764 26.7162 25.7703C26.9581 25.5643 27.274 25.4666 27.59 25.4999C28.2184 25.4538 28.7669 25.922 28.82 26.5499V28.6899C28.82 28.771 28.8306 28.8517 28.8515 28.9299ZM32.42 28.9299H30.31C30.3195 28.8535 30.3195 28.7763 30.31 28.6999V26.5899C30.2557 25.1174 29.0228 23.9649 27.55 24.0099C26.0733 23.9593 24.8343 25.1134 24.78 26.5899V28.7299C24.7705 28.8063 24.7705 28.8835 24.78 28.9599H22.76C22.0234 28.9939 21.3977 28.4263 21.36 27.6899V21.0199C22.6924 20.8188 23.7624 19.8163 24.05 18.4999C24.4022 20.097 25.8681 21.1975 27.5 21.0899C29.1025 21.1571 30.5225 20.0657 30.87 18.4999C31.1514 19.8992 32.3103 20.9528 33.73 21.0999V27.7399C33.6688 28.4214 33.1041 28.9473 32.42 28.9599V28.9299ZM34.42 19.3399C34.9501 19.326 35.4413 19.0581 35.74 18.6199V18.6499C35.9475 18.3003 35.9736 17.8721 35.81 17.4999L34.16 12.9499C34.0136 12.6523 33.7006 12.474 33.37 12.4999H21.62C21.3019 12.4708 20.9964 12.6314 20.84 12.9099L19.19 17.4999C18.9756 17.9243 19.0141 18.4326 19.29 18.8199C19.5392 19.1262 19.8979 19.3234 20.29 19.3699C20.4162 19.3846 20.5438 19.3846 20.67 19.3699C21.4395 19.4119 22.1344 18.9126 22.34 18.1699C22.4926 17.3246 23.2212 16.7049 24.08 16.6899C24.9481 16.6895 25.6868 17.3221 25.82 18.1799C26.0236 18.9272 26.7275 19.4258 27.5 19.3699C28.2788 19.4218 28.9827 18.9076 29.17 18.1499C29.3146 17.2986 30.0465 16.6718 30.91 16.6599C31.7749 16.6587 32.5124 17.2861 32.65 18.1399C32.8537 18.8927 33.5621 19.3957 34.34 19.3399H34.42Z" fill="white"/>
<path d="M17.87 40.778V48.5H15.989V45.321H13.063V48.5H11.182V40.778H13.063V43.803H15.989V40.778H17.87ZM22.0219 48.588C21.4206 48.588 20.8779 48.4597 20.3939 48.203C19.9172 47.9463 19.5396 47.5797 19.2609 47.103C18.9896 46.6263 18.8539 46.069 18.8539 45.431C18.8539 44.8003 18.9932 44.2467 19.2719 43.77C19.5506 43.286 19.9319 42.9157 20.4159 42.659C20.8999 42.4023 21.4426 42.274 22.0439 42.274C22.6452 42.274 23.1879 42.4023 23.6719 42.659C24.1559 42.9157 24.5372 43.286 24.8159 43.77C25.0946 44.2467 25.2339 44.8003 25.2339 45.431C25.2339 46.0617 25.0909 46.619 24.8049 47.103C24.5262 47.5797 24.1412 47.9463 23.6499 48.203C23.1659 48.4597 22.6232 48.588 22.0219 48.588ZM22.0219 46.96C22.3812 46.96 22.6856 46.828 22.9349 46.564C23.1916 46.3 23.3199 45.9223 23.3199 45.431C23.3199 44.9397 23.1952 44.562 22.9459 44.298C22.7039 44.034 22.4032 43.902 22.0439 43.902C21.6772 43.902 21.3729 44.034 21.1309 44.298C20.8889 44.5547 20.7679 44.9323 20.7679 45.431C20.7679 45.9223 20.8852 46.3 21.1199 46.564C21.3619 46.828 21.6626 46.96 22.0219 46.96ZM34.0638 42.296C34.8265 42.296 35.4315 42.527 35.8788 42.989C36.3335 43.451 36.5608 44.0927 36.5608 44.914V48.5H34.6908V45.167C34.6908 44.771 34.5845 44.4667 34.3718 44.254C34.1665 44.034 33.8805 43.924 33.5138 43.924C33.1471 43.924 32.8575 44.034 32.6448 44.254C32.4395 44.4667 32.3368 44.771 32.3368 45.167V48.5H30.4668V45.167C30.4668 44.771 30.3605 44.4667 30.1478 44.254C29.9425 44.034 29.6565 43.924 29.2898 43.924C28.9231 43.924 28.6335 44.034 28.4208 44.254C28.2155 44.4667 28.1128 44.771 28.1128 45.167V48.5H26.2318V42.362H28.1128V43.132C28.3035 42.8753 28.5528 42.6737 28.8608 42.527C29.1688 42.373 29.5171 42.296 29.9058 42.296C30.3678 42.296 30.7785 42.395 31.1378 42.593C31.5045 42.791 31.7905 43.0733 31.9958 43.44C32.2085 43.1027 32.4981 42.8277 32.8648 42.615C33.2315 42.4023 33.6311 42.296 34.0638 42.296ZM43.6623 45.332C43.6623 45.508 43.6513 45.6913 43.6293 45.882H39.3723C39.4017 46.2633 39.5227 46.5567 39.7353 46.762C39.9553 46.96 40.223 47.059 40.5383 47.059C41.0077 47.059 41.334 46.861 41.5173 46.465H43.5193C43.4167 46.8683 43.2297 47.2313 42.9583 47.554C42.6943 47.8767 42.3607 48.1297 41.9573 48.313C41.554 48.4963 41.103 48.588 40.6043 48.588C40.003 48.588 39.4677 48.4597 38.9983 48.203C38.529 47.9463 38.1623 47.5797 37.8983 47.103C37.6343 46.6263 37.5023 46.069 37.5023 45.431C37.5023 44.793 37.6307 44.2357 37.8873 43.759C38.1513 43.2823 38.518 42.9157 38.9873 42.659C39.4567 42.4023 39.9957 42.274 40.6043 42.274C41.1983 42.274 41.7263 42.3987 42.1883 42.648C42.6503 42.8973 43.0097 43.253 43.2663 43.715C43.5303 44.177 43.6623 44.716 43.6623 45.332ZM41.7373 44.837C41.7373 44.5143 41.6273 44.2577 41.4073 44.067C41.1873 43.8763 40.9123 43.781 40.5823 43.781C40.267 43.781 39.9993 43.8727 39.7793 44.056C39.5667 44.2393 39.4347 44.4997 39.3833 44.837H41.7373Z" fill="white"/>
</svg>
